<svg xmlns="http://www.w3.org/2000/svg" xmlns:xlink="http://www.w3.org/1999/xlink" width="50" zoomAndPan="magnify" viewBox="0 0 37.5 37.499999" height="50" preserveAspectRatio="xMidYMid meet" version="1.0"><defs><clipPath id="561fe34c38"><path d="M 0 5 L 34.5 5 L 34.5 35.832031 L 0 35.832031 Z M 0 5 " clip-rule="nonzero"/></clipPath></defs><path fill="#5271ff" d="M 14.5625 2.9375 C 19.210938 1.394531 24.636719 2.5 28.292969 5.703125 C 31.246094 8.195312 33.039062 11.945312 33.117188 15.769531 C 33.285156 20.125 31.203125 24.570312 27.613281 27.171875 C 29.46875 25.011719 30.9375 22.449219 31.261719 19.601562 C 31.8125 15.566406 30.292969 11.324219 27.304688 8.5 C 24.007812 5.339844 18.988281 3.992188 14.53125 5.226562 C 9.910156 6.363281 6.160156 10.132812 4.980469 14.648438 C 4.855469 13.40625 5.308594 12.21875 5.738281 11.074219 C 7.246094 7.253906 10.578125 4.171875 14.5625 2.9375 " fill-opacity="1" fill-rule="nonzero"/><g clip-path="url(#561fe34c38)"><path fill="#5271ff" d="M 34.484375 19.386719 C 34.1875 23.46875 32.429688 27.472656 29.40625 30.324219 C 25.59375 34.046875 19.859375 35.785156 14.570312 34.757812 C 10.238281 33.988281 6.230469 31.464844 3.765625 27.871094 C 0.808594 23.667969 -0.00390625 18.101562 1.703125 13.273438 C 2.8125 10.117188 4.847656 7.175781 7.695312 5.289062 C 5.128906 7.863281 3.351562 11.234375 3.015625 14.847656 C 2.628906 18.25 3.484375 21.734375 5.273438 24.667969 C 7.214844 24.179688 9.179688 23.589844 11.210938 23.648438 C 11.253906 23.949219 11.386719 24.347656 11.792969 24.628906 C 12.035156 24.808594 12.339844 24.90625 12.65625 24.90625 C 12.972656 24.90625 13.265625 24.816406 13.5 24.65625 C 13.734375 24.808594 14.007812 24.898438 14.304688 24.898438 C 14.742188 24.898438 15.167969 24.707031 15.441406 24.378906 C 15.871094 24.476562 16.308594 24.558594 16.746094 24.605469 C 16.785156 24.617188 16.824219 24.628906 16.867188 24.628906 C 17.082031 24.789062 17.363281 24.886719 17.742188 24.886719 L 17.914062 24.878906 L 18.464844 24.886719 C 18.839844 24.976562 19.207031 25.105469 19.53125 25.324219 C 19.988281 25.707031 19.746094 26.285156 19.246094 26.453125 C 17.730469 27.003906 16.074219 26.664062 14.507812 26.933594 C 15.769531 27.113281 17.0625 27.152344 18.34375 27.082031 C 18.992188 27.042969 19.695312 26.863281 20.152344 26.375 C 20.527344 25.816406 19.898438 25.277344 19.65625 24.816406 C 20.191406 24.65625 20.710938 24.488281 21.242188 24.308594 L 21.25 24.308594 C 21.28125 24.328125 21.300781 24.359375 21.332031 24.386719 C 21.535156 24.566406 21.914062 24.90625 22.511719 24.90625 L 22.695312 24.898438 L 22.796875 24.878906 C 22.980469 24.828125 23.140625 24.75 23.285156 24.648438 C 23.519531 24.796875 23.804688 24.886719 24.109375 24.886719 C 24.820312 24.886719 25.421875 24.410156 25.554688 23.71875 L 25.574219 23.640625 L 25.574219 23.550781 C 25.574219 23.359375 25.574219 23.160156 25.582031 22.960938 C 26.171875 22.851562 27.355469 23.132812 27.007812 23.898438 C 26.742188 24.289062 26.304688 24.5 25.90625 24.726562 C 23.804688 25.835938 21.6875 26.941406 19.59375 28.070312 C 18.707031 28.519531 17.792969 29.070312 16.753906 28.949219 C 13.714844 28.660156 10.804688 27.460938 7.722656 27.570312 C 10.703125 30.546875 15.015625 32.183594 19.257812 32.023438 C 24.222656 31.953125 29.019531 29.359375 31.839844 25.355469 C 33.160156 23.578125 33.863281 21.484375 34.484375 19.386719 " fill-opacity="1" fill-rule="nonzero"/></g><path fill="#5271ff" d="M 13.664062 10.976562 C 14.441406 10.554688 15.554688 11.125 15.546875 12.019531 C 15.664062 12.96875 14.488281 13.703125 13.65625 13.210938 C 12.757812 12.792969 12.785156 11.402344 13.664062 10.976562 " fill-opacity="1" fill-rule="nonzero"/><path fill="#5271ff" d="M 22.324219 11.113281 C 23.140625 10.621094 24.335938 11.320312 24.234375 12.269531 C 24.253906 13.207031 23.023438 13.828125 22.253906 13.273438 C 21.449219 12.820312 21.488281 11.515625 22.324219 11.113281 " fill-opacity="1" fill-rule="nonzero"/><path fill="#5271ff" d="M 26.085938 18.195312 C 25.722656 17.511719 25.34375 16.820312 24.765625 16.277344 C 25.082031 17.550781 25.457031 18.816406 25.777344 20.09375 C 25.371094 20.089844 24.964844 20.085938 24.558594 20.085938 C 24.554688 21.238281 24.574219 22.386719 24.554688 23.535156 C 24.472656 23.957031 23.871094 24.011719 23.683594 23.628906 C 23.546875 22.601562 23.527344 21.566406 23.4375 20.535156 C 23.421875 20.335938 23.359375 20.144531 23.292969 19.957031 C 23.195312 20.128906 23.144531 20.324219 23.128906 20.523438 C 23.054688 21.484375 22.976562 22.449219 22.902344 23.414062 C 22.902344 23.636719 22.765625 23.847656 22.53125 23.910156 C 22.222656 23.925781 22.046875 23.628906 21.808594 23.476562 C 21.90625 23.339844 22.050781 23.203125 21.992188 23.015625 C 22.007812 22.039062 21.996094 21.0625 22.027344 20.089844 C 21.609375 20.113281 21.160156 20.007812 20.765625 20.183594 C 21.167969 19.058594 21.5 17.914062 21.882812 16.78125 C 21.335938 17.175781 20.882812 17.703125 20.261719 17.976562 C 20.1875 18.734375 19.808594 19.457031 19.140625 19.863281 C 19.148438 21.035156 19.140625 22.210938 19.140625 23.390625 C 19.125 23.558594 19.191406 23.851562 18.945312 23.890625 C 18.761719 23.949219 18.558594 23.839844 18.566406 23.636719 C 18.507812 23.257812 18.476562 22.871094 18.402344 22.492188 C 18.382812 22.363281 18.351562 22.234375 18.316406 22.105469 C 18.25 22.226562 18.199219 22.355469 18.164062 22.484375 C 18.042969 22.9375 18.0625 23.425781 17.9375 23.882812 C 17.753906 23.878906 17.402344 23.9375 17.398438 23.675781 C 17.394531 22.390625 17.386719 21.113281 17.375 19.839844 C 16.628906 19.421875 16.300781 18.574219 16.289062 17.769531 C 15.75 17.289062 15.269531 16.753906 14.753906 16.25 C 14.761719 18.632812 14.796875 21.011719 14.785156 23.390625 C 14.871094 23.90625 14.035156 24.113281 13.910156 23.59375 C 13.730469 22.175781 13.730469 20.734375 13.527344 19.316406 C 13.445312 19.449219 13.394531 19.597656 13.386719 19.753906 C 13.285156 21.011719 13.238281 22.273438 13.117188 23.53125 C 13.101562 23.871094 12.632812 24.015625 12.382812 23.816406 C 12.203125 23.703125 12.203125 23.457031 12.199219 23.269531 C 12.210938 20.921875 12.179688 18.566406 12.246094 16.21875 C 11.851562 16.699219 11.628906 17.277344 11.394531 17.84375 C 11.234375 18.28125 10.488281 18.125 10.519531 17.644531 C 10.835938 16.554688 11.367188 15.523438 12 14.574219 C 12.3125 14.101562 12.730469 13.613281 13.324219 13.53125 C 13.777344 13.46875 14.359375 13.585938 14.570312 14.03125 C 15.09375 14.921875 15.640625 15.816406 16.382812 16.554688 C 16.582031 16.808594 16.933594 17.03125 16.863281 17.398438 C 16.867188 17.960938 16.957031 18.625 17.480469 18.960938 C 17.59375 19.050781 17.71875 19.117188 17.851562 19.15625 C 18.113281 19.242188 18.394531 19.242188 18.65625 19.164062 C 18.878906 19.097656 19.089844 18.96875 19.25 18.796875 C 19.703125 18.371094 19.570312 17.679688 19.933594 17.203125 C 20.28125 16.769531 20.6875 16.378906 21.03125 15.941406 C 21.488281 15.382812 21.851562 14.757812 22.308594 14.199219 C 22.742188 13.625 23.714844 13.589844 24.210938 14.113281 C 25.308594 15.097656 26.214844 16.308594 26.792969 17.652344 C 26.933594 18.070312 26.433594 18.285156 26.085938 18.195312 " fill-opacity="1" fill-rule="nonzero"/><path fill="#5271ff" d="M 19.222656 18.144531 C 19.230469 18.503906 18.972656 18.785156 18.652344 18.910156 C 18.394531 19.011719 18.089844 19.007812 17.851562 18.855469 C 17.824219 18.84375 17.800781 18.828125 17.777344 18.808594 C 17.265625 18.464844 17.300781 17.621094 17.851562 17.335938 C 18.101562 17.175781 18.398438 17.167969 18.652344 17.277344 C 19 17.414062 19.265625 17.75 19.222656 18.144531 " fill-opacity="1" fill-rule="nonzero"/></svg>