<svg xmlns="http://www.w3.org/2000/svg" xmlns:xlink="http://www.w3.org/1999/xlink" width="104" zoomAndPan="magnify" viewBox="0 0 78 48" height="64" preserveAspectRatio="xMidYMid meet" version="1.0"><defs><g/><clipPath id="4c996ce23f"><path d="M 0.796875 0 L 77.203125 0 L 77.203125 47.019531 L 0.796875 47.019531 Z M 0.796875 0 " clip-rule="nonzero"/></clipPath><clipPath id="bb920617b5"><path d="M 0.796875 18 L 1 18 L 1 19 L 0.796875 19 Z M 0.796875 18 " clip-rule="nonzero"/></clipPath></defs><g clip-path="url(#4c996ce23f)"><path fill="#ffffff" d="M 0.796875 0 L 77.203125 0 L 77.203125 54.367188 L 0.796875 54.367188 Z M 0.796875 0 " fill-opacity="1" fill-rule="nonzero"/><path fill="#ffffff" d="M 0.796875 0 L 77.203125 0 L 77.203125 47.019531 L 0.796875 47.019531 Z M 0.796875 0 " fill-opacity="1" fill-rule="nonzero"/><path fill="#ffffff" d="M 0.796875 0 L 77.203125 0 L 77.203125 47.019531 L 0.796875 47.019531 Z M 0.796875 0 " fill-opacity="1" fill-rule="nonzero"/></g><g clip-path="url(#bb920617b5)"><g fill="#000000" fill-opacity="1"><g transform="translate(0.814271, 18.595987)"><g/></g></g></g><g fill="#000000" fill-opacity="1"><g transform="translate(3.351444, 18.595987)"><g/></g></g><g fill="#000000" fill-opacity="1"><g transform="translate(5.888616, 18.595987)"><g/></g></g><g fill="#000000" fill-opacity="1"><g transform="translate(8.412508, 18.595987)"><g><path d="M 4.578125 -0.15625 C 5.046875 -0.15625 5.460938 -0.28125 5.828125 -0.53125 C 6.191406 -0.789062 6.375 -1.175781 6.375 -1.6875 C 6.375 -2.195312 6.175781 -2.585938 5.78125 -2.859375 C 5.394531 -3.128906 4.84375 -3.363281 4.125 -3.5625 C 3.40625 -3.769531 2.882812 -3.945312 2.5625 -4.09375 C 2.238281 -4.25 1.929688 -4.445312 1.640625 -4.6875 C 1.054688 -5.175781 0.765625 -5.9375 0.765625 -6.96875 C 0.765625 -7.800781 1.0625 -8.515625 1.65625 -9.109375 C 2.25 -9.710938 3.0625 -10.015625 4.09375 -10.015625 C 4.59375 -10.015625 5.113281 -9.941406 5.65625 -9.796875 C 6.195312 -9.648438 6.53125 -9.578125 6.65625 -9.578125 C 6.789062 -9.578125 6.910156 -9.671875 7.015625 -9.859375 L 7.171875 -9.859375 L 7.265625 -7.015625 L 7.046875 -7.015625 C 6.597656 -7.835938 6.125 -8.492188 5.625 -8.984375 C 5.132812 -9.472656 4.597656 -9.71875 4.015625 -9.71875 C 3.441406 -9.71875 2.992188 -9.582031 2.671875 -9.3125 C 2.359375 -9.050781 2.203125 -8.695312 2.203125 -8.25 C 2.203125 -7.800781 2.390625 -7.457031 2.765625 -7.21875 C 3.148438 -6.976562 3.617188 -6.78125 4.171875 -6.625 C 4.722656 -6.476562 5.085938 -6.378906 5.265625 -6.328125 C 5.441406 -6.273438 5.65625 -6.195312 5.90625 -6.09375 C 6.164062 -6 6.378906 -5.894531 6.546875 -5.78125 C 6.710938 -5.675781 6.882812 -5.539062 7.0625 -5.375 C 7.25 -5.207031 7.394531 -5.023438 7.5 -4.828125 C 7.75 -4.378906 7.875 -3.847656 7.875 -3.234375 C 7.875 -2.210938 7.554688 -1.394531 6.921875 -0.78125 C 6.285156 -0.164062 5.453125 0.140625 4.421875 0.140625 C 3.890625 0.140625 3.273438 0.0703125 2.578125 -0.0625 C 1.890625 -0.207031 1.507812 -0.28125 1.4375 -0.28125 C 1.300781 -0.28125 1.175781 -0.140625 1.0625 0.140625 L 0.859375 0.140625 L 0.71875 -3.21875 L 0.953125 -3.21875 C 1.367188 -2.394531 1.898438 -1.675781 2.546875 -1.0625 C 3.191406 -0.457031 3.867188 -0.15625 4.578125 -0.15625 Z M 4.578125 -0.15625 "/></g></g></g><g fill="#000000" fill-opacity="1"><g transform="translate(16.869743, 18.595987)"><g><path d="M 0.359375 -9.859375 L 4.65625 -9.859375 L 4.65625 -9.59375 L 3.875 -9.59375 L 3.875 -0.265625 L 4.65625 -0.265625 L 4.65625 0 L 0.359375 0 L 0.359375 -0.265625 L 1.125 -0.265625 L 1.125 -9.59375 L 0.359375 -9.59375 Z M 2.46875 -10.609375 C 1.96875 -10.609375 1.609375 -10.734375 1.390625 -10.984375 C 1.179688 -11.242188 1.078125 -11.5625 1.078125 -11.9375 C 1.078125 -12.3125 1.191406 -12.617188 1.421875 -12.859375 C 1.660156 -13.109375 2.015625 -13.234375 2.484375 -13.234375 C 2.953125 -13.234375 3.304688 -13.125 3.546875 -12.90625 C 3.796875 -12.6875 3.921875 -12.367188 3.921875 -11.953125 C 3.921875 -11.546875 3.800781 -11.21875 3.5625 -10.96875 C 3.332031 -10.726562 2.96875 -10.609375 2.46875 -10.609375 Z M 2.46875 -10.609375 "/></g></g></g><g fill="#000000" fill-opacity="1"><g transform="translate(21.873597, 18.595987)"><g><path d="M 5.5 -0.140625 C 5.957031 -0.140625 6.25 -0.222656 6.375 -0.390625 C 6.5 -0.554688 6.5625 -0.84375 6.5625 -1.25 L 6.5625 -3.984375 L 5.671875 -3.984375 L 5.671875 -4.296875 L 9.71875 -4.296875 L 9.71875 -3.984375 L 9.171875 -3.984375 L 9.171875 -0.015625 L 8.96875 -0.015625 C 8.789062 -0.242188 8.550781 -0.359375 8.25 -0.359375 C 8.113281 -0.359375 7.71875 -0.273438 7.0625 -0.109375 C 6.414062 0.0546875 5.859375 0.140625 5.390625 0.140625 C 3.859375 0.140625 2.671875 -0.269531 1.828125 -1.09375 C 0.992188 -1.925781 0.578125 -3.171875 0.578125 -4.828125 C 0.578125 -6.484375 1.015625 -7.757812 1.890625 -8.65625 C 2.773438 -9.5625 3.957031 -10.015625 5.4375 -10.015625 C 6.007812 -10.015625 6.582031 -9.941406 7.15625 -9.796875 C 7.738281 -9.648438 8.078125 -9.578125 8.171875 -9.578125 C 8.265625 -9.578125 8.332031 -9.597656 8.375 -9.640625 C 8.425781 -9.679688 8.484375 -9.753906 8.546875 -9.859375 L 8.703125 -9.859375 L 8.8125 -6.8125 L 8.5625 -6.8125 C 8.09375 -7.71875 7.625 -8.429688 7.15625 -8.953125 C 6.695312 -9.472656 6.179688 -9.734375 5.609375 -9.734375 C 4.171875 -9.734375 3.453125 -8.332031 3.453125 -5.53125 L 3.453125 -4.40625 C 3.453125 -3 3.628906 -1.9375 3.984375 -1.21875 C 4.335938 -0.5 4.84375 -0.140625 5.5 -0.140625 Z M 5.5 -0.140625 "/></g></g></g><g fill="#000000" fill-opacity="1"><g transform="translate(32.064549, 18.595987)"><g><path d="M 7.0625 -4.359375 L 7.0625 -5.390625 C 7.0625 -7.117188 6.976562 -8.207031 6.8125 -8.65625 C 6.625 -9.164062 6.351562 -9.484375 6 -9.609375 C 5.800781 -9.679688 5.5625 -9.71875 5.28125 -9.71875 C 5 -9.71875 4.753906 -9.679688 4.546875 -9.609375 C 4.347656 -9.535156 4.179688 -9.40625 4.046875 -9.21875 C 3.921875 -9.03125 3.816406 -8.832031 3.734375 -8.625 C 3.660156 -8.414062 3.597656 -8.125 3.546875 -7.75 C 3.492188 -7.207031 3.46875 -6.40625 3.46875 -5.34375 L 3.46875 -4.328125 C 3.46875 -3.179688 3.507812 -2.363281 3.59375 -1.875 C 3.6875 -1.394531 3.800781 -1.050781 3.9375 -0.84375 C 4.226562 -0.382812 4.675781 -0.15625 5.28125 -0.15625 C 6.03125 -0.15625 6.515625 -0.46875 6.734375 -1.09375 C 6.953125 -1.71875 7.0625 -2.804688 7.0625 -4.359375 Z M 5.25 0.140625 C 3.6875 0.140625 2.515625 -0.28125 1.734375 -1.125 C 0.960938 -1.976562 0.578125 -3.210938 0.578125 -4.828125 C 0.578125 -6.441406 0.992188 -7.707031 1.828125 -8.625 C 2.660156 -9.550781 3.835938 -10.015625 5.359375 -10.015625 C 6.878906 -10.015625 8.023438 -9.578125 8.796875 -8.703125 C 9.578125 -7.828125 9.96875 -6.578125 9.96875 -4.953125 C 9.96875 -3.335938 9.570312 -2.082031 8.78125 -1.1875 C 8 -0.300781 6.820312 0.140625 5.25 0.140625 Z M 5.25 0.140625 "/></g></g></g><g fill="#000000" fill-opacity="1"><g transform="translate(42.607887, 18.595987)"><g><path d="M 4.625 -4.984375 L 3.875 -4.984375 L 3.875 -0.265625 L 4.796875 -0.265625 L 4.796875 0 L 0.21875 0 L 0.21875 -0.265625 L 1.125 -0.265625 L 1.125 -9.59375 L 0.21875 -9.59375 L 0.21875 -9.859375 L 4.46875 -9.859375 C 5.6875 -9.859375 6.550781 -9.796875 7.0625 -9.671875 C 7.582031 -9.546875 7.941406 -9.394531 8.140625 -9.21875 C 8.597656 -8.851562 8.828125 -8.269531 8.828125 -7.46875 C 8.828125 -6.664062 8.628906 -6.09375 8.234375 -5.75 C 7.835938 -5.414062 7.234375 -5.210938 6.421875 -5.140625 L 6.421875 -5.109375 C 7.179688 -5.003906 7.710938 -4.773438 8.015625 -4.421875 C 8.316406 -4.078125 8.46875 -3.492188 8.46875 -2.671875 L 8.46875 -1.9375 C 8.46875 -1.445312 8.492188 -1.113281 8.546875 -0.9375 C 8.597656 -0.769531 8.707031 -0.6875 8.875 -0.6875 C 9.039062 -0.6875 9.171875 -0.765625 9.265625 -0.921875 C 9.367188 -1.078125 9.46875 -1.40625 9.5625 -1.90625 L 9.796875 -1.875 C 9.691406 -1.070312 9.507812 -0.535156 9.25 -0.265625 C 8.988281 0.00390625 8.472656 0.140625 7.703125 0.140625 C 6.929688 0.140625 6.382812 -0.0351562 6.0625 -0.390625 C 5.738281 -0.753906 5.578125 -1.4375 5.578125 -2.4375 L 5.578125 -3.46875 C 5.578125 -3.988281 5.507812 -4.367188 5.375 -4.609375 C 5.238281 -4.859375 4.988281 -4.984375 4.625 -4.984375 Z M 3.875 -9.59375 L 3.875 -5.25 L 4.328125 -5.25 C 4.859375 -5.25 5.253906 -5.414062 5.515625 -5.75 C 5.773438 -6.082031 5.90625 -6.617188 5.90625 -7.359375 L 5.90625 -7.765625 C 5.90625 -8.503906 5.78125 -8.992188 5.53125 -9.234375 C 5.28125 -9.472656 4.882812 -9.59375 4.34375 -9.59375 Z M 3.875 -9.59375 "/></g></g></g><g fill="#000000" fill-opacity="1"><g transform="translate(52.700173, 18.595987)"><g><path d="M 8.96875 -9.859375 L 9.109375 -6.328125 L 8.84375 -6.328125 C 8.425781 -7.578125 8.054688 -8.425781 7.734375 -8.875 C 7.421875 -9.332031 6.960938 -9.5625 6.359375 -9.5625 L 6.1875 -9.5625 L 6.1875 -0.296875 L 7.390625 -0.296875 L 7.390625 0 L 2.234375 0 L 2.234375 -0.296875 L 3.4375 -0.296875 L 3.4375 -9.5625 L 3.25 -9.5625 C 2.65625 -9.5625 2.191406 -9.320312 1.859375 -8.84375 C 1.523438 -8.375 1.164062 -7.535156 0.78125 -6.328125 L 0.5 -6.328125 L 0.640625 -9.859375 Z M 8.96875 -9.859375 "/></g></g></g><g fill="#000000" fill-opacity="1"><g transform="translate(62.32732, 18.595987)"><g><path d="M 6.09375 -0.265625 L 5.0625 -3.3125 L 2.265625 -3.3125 L 1.1875 -0.265625 L 2.234375 -0.265625 L 2.234375 0 L 0.078125 0 L 0.078125 -0.265625 L 0.75 -0.265625 L 4.34375 -9.953125 L 5.5 -9.953125 L 9.046875 -0.265625 L 9.703125 -0.265625 L 9.703125 0 L 5.09375 0 L 5.09375 -0.265625 Z M 3.71875 -7.3125 L 2.390625 -3.625 L 4.953125 -3.625 Z M 3.71875 -7.3125 "/></g></g></g><g fill="#000000" fill-opacity="1"><g transform="translate(72.098209, 18.595987)"><g/></g></g><g fill="#000000" fill-opacity="1"><g transform="translate(74.635382, 18.595987)"><g/></g></g><g fill="#000000" fill-opacity="1"><g transform="translate(12.505278, 37.389692)"><g><path d="M 0.296875 -9.859375 L 4.515625 -9.859375 C 5.816406 -9.859375 6.789062 -9.679688 7.4375 -9.328125 C 8.09375 -8.984375 8.421875 -8.390625 8.421875 -7.546875 C 8.421875 -6.265625 7.648438 -5.5 6.109375 -5.25 L 6.109375 -5.21875 C 7.984375 -4.976562 8.921875 -4.160156 8.921875 -2.765625 C 8.921875 -1.734375 8.535156 -1.015625 7.765625 -0.609375 C 6.992188 -0.203125 5.882812 0 4.4375 0 L 0.296875 0 L 0.296875 -0.265625 L 1.21875 -0.265625 L 1.21875 -9.59375 L 0.296875 -9.59375 Z M 3.953125 -4.984375 L 3.953125 -0.265625 L 4.625 -0.265625 C 5.132812 -0.265625 5.492188 -0.441406 5.703125 -0.796875 C 5.910156 -1.160156 6.015625 -1.6875 6.015625 -2.375 L 6.015625 -3.125 C 6.015625 -3.75 5.882812 -4.210938 5.625 -4.515625 C 5.375 -4.828125 4.925781 -4.984375 4.28125 -4.984375 Z M 3.953125 -9.59375 L 3.953125 -5.25 L 4.328125 -5.25 C 4.816406 -5.25 5.15625 -5.394531 5.34375 -5.6875 C 5.539062 -5.988281 5.640625 -6.445312 5.640625 -7.0625 L 5.640625 -7.71875 C 5.640625 -8.414062 5.550781 -8.898438 5.375 -9.171875 C 5.207031 -9.453125 4.882812 -9.59375 4.40625 -9.59375 Z M 3.953125 -9.59375 "/></g></g></g><g fill="#000000" fill-opacity="1"><g transform="translate(21.794126, 37.389692)"><g><path d="M 0.359375 -9.859375 L 4.65625 -9.859375 L 4.65625 -9.59375 L 3.875 -9.59375 L 3.875 -0.265625 L 4.65625 -0.265625 L 4.65625 0 L 0.359375 0 L 0.359375 -0.265625 L 1.125 -0.265625 L 1.125 -9.59375 L 0.359375 -9.59375 Z M 2.46875 -10.609375 C 1.96875 -10.609375 1.609375 -10.734375 1.390625 -10.984375 C 1.179688 -11.242188 1.078125 -11.5625 1.078125 -11.9375 C 1.078125 -12.3125 1.191406 -12.617188 1.421875 -12.859375 C 1.660156 -13.109375 2.015625 -13.234375 2.484375 -13.234375 C 2.953125 -13.234375 3.304688 -13.125 3.546875 -12.90625 C 3.796875 -12.6875 3.921875 -12.367188 3.921875 -11.953125 C 3.921875 -11.546875 3.800781 -11.21875 3.5625 -10.96875 C 3.332031 -10.726562 2.96875 -10.609375 2.46875 -10.609375 Z M 2.46875 -10.609375 "/></g></g></g><g fill="#000000" fill-opacity="1"><g transform="translate(26.797979, 37.389692)"><g><path d="M 4.625 -4.984375 L 3.875 -4.984375 L 3.875 -0.265625 L 4.796875 -0.265625 L 4.796875 0 L 0.21875 0 L 0.21875 -0.265625 L 1.125 -0.265625 L 1.125 -9.59375 L 0.21875 -9.59375 L 0.21875 -9.859375 L 4.46875 -9.859375 C 5.6875 -9.859375 6.550781 -9.796875 7.0625 -9.671875 C 7.582031 -9.546875 7.941406 -9.394531 8.140625 -9.21875 C 8.597656 -8.851562 8.828125 -8.269531 8.828125 -7.46875 C 8.828125 -6.664062 8.628906 -6.09375 8.234375 -5.75 C 7.835938 -5.414062 7.234375 -5.210938 6.421875 -5.140625 L 6.421875 -5.109375 C 7.179688 -5.003906 7.710938 -4.773438 8.015625 -4.421875 C 8.316406 -4.078125 8.46875 -3.492188 8.46875 -2.671875 L 8.46875 -1.9375 C 8.46875 -1.445312 8.492188 -1.113281 8.546875 -0.9375 C 8.597656 -0.769531 8.707031 -0.6875 8.875 -0.6875 C 9.039062 -0.6875 9.171875 -0.765625 9.265625 -0.921875 C 9.367188 -1.078125 9.46875 -1.40625 9.5625 -1.90625 L 9.796875 -1.875 C 9.691406 -1.070312 9.507812 -0.535156 9.25 -0.265625 C 8.988281 0.00390625 8.472656 0.140625 7.703125 0.140625 C 6.929688 0.140625 6.382812 -0.0351562 6.0625 -0.390625 C 5.738281 -0.753906 5.578125 -1.4375 5.578125 -2.4375 L 5.578125 -3.46875 C 5.578125 -3.988281 5.507812 -4.367188 5.375 -4.609375 C 5.238281 -4.859375 4.988281 -4.984375 4.625 -4.984375 Z M 3.875 -9.59375 L 3.875 -5.25 L 4.328125 -5.25 C 4.859375 -5.25 5.253906 -5.414062 5.515625 -5.75 C 5.773438 -6.082031 5.90625 -6.617188 5.90625 -7.359375 L 5.90625 -7.765625 C 5.90625 -8.503906 5.78125 -8.992188 5.53125 -9.234375 C 5.28125 -9.472656 4.882812 -9.59375 4.34375 -9.59375 Z M 3.875 -9.59375 "/></g></g></g><g fill="#000000" fill-opacity="1"><g transform="translate(36.890265, 37.389692)"><g><path d="M 0.296875 -9.859375 L 5.375 -9.859375 L 5.375 -9.5625 L 3.875 -9.5625 L 3.875 -0.3125 L 4.390625 -0.3125 C 5.179688 -0.3125 5.8125 -0.554688 6.28125 -1.046875 C 6.757812 -1.535156 7.242188 -2.285156 7.734375 -3.296875 L 8.03125 -3.296875 L 7.765625 0 L 0.296875 0 L 0.296875 -0.3125 L 1.125 -0.3125 L 1.125 -9.5625 L 0.296875 -9.5625 Z M 0.296875 -9.859375 "/></g></g></g><g fill="#000000" fill-opacity="1"><g transform="translate(45.291115, 37.389692)"><g><path d="M 0.359375 -9.859375 L 4.65625 -9.859375 L 4.65625 -9.59375 L 3.875 -9.59375 L 3.875 -0.265625 L 4.65625 -0.265625 L 4.65625 0 L 0.359375 0 L 0.359375 -0.265625 L 1.125 -0.265625 L 1.125 -9.59375 L 0.359375 -9.59375 Z M 2.46875 -10.609375 C 1.96875 -10.609375 1.609375 -10.734375 1.390625 -10.984375 C 1.179688 -11.242188 1.078125 -11.5625 1.078125 -11.9375 C 1.078125 -12.3125 1.191406 -12.617188 1.421875 -12.859375 C 1.660156 -13.109375 2.015625 -13.234375 2.484375 -13.234375 C 2.953125 -13.234375 3.304688 -13.125 3.546875 -12.90625 C 3.796875 -12.6875 3.921875 -12.367188 3.921875 -11.953125 C 3.921875 -11.546875 3.800781 -11.21875 3.5625 -10.96875 C 3.332031 -10.726562 2.96875 -10.609375 2.46875 -10.609375 Z M 2.46875 -10.609375 "/></g></g></g><g fill="#000000" fill-opacity="1"><g transform="translate(50.294968, 37.389692)"><g><path d="M 5.5 -0.140625 C 5.957031 -0.140625 6.25 -0.222656 6.375 -0.390625 C 6.5 -0.554688 6.5625 -0.84375 6.5625 -1.25 L 6.5625 -3.984375 L 5.671875 -3.984375 L 5.671875 -4.296875 L 9.71875 -4.296875 L 9.71875 -3.984375 L 9.171875 -3.984375 L 9.171875 -0.015625 L 8.96875 -0.015625 C 8.789062 -0.242188 8.550781 -0.359375 8.25 -0.359375 C 8.113281 -0.359375 7.71875 -0.273438 7.0625 -0.109375 C 6.414062 0.0546875 5.859375 0.140625 5.390625 0.140625 C 3.859375 0.140625 2.671875 -0.269531 1.828125 -1.09375 C 0.992188 -1.925781 0.578125 -3.171875 0.578125 -4.828125 C 0.578125 -6.484375 1.015625 -7.757812 1.890625 -8.65625 C 2.773438 -9.5625 3.957031 -10.015625 5.4375 -10.015625 C 6.007812 -10.015625 6.582031 -9.941406 7.15625 -9.796875 C 7.738281 -9.648438 8.078125 -9.578125 8.171875 -9.578125 C 8.265625 -9.578125 8.332031 -9.597656 8.375 -9.640625 C 8.425781 -9.679688 8.484375 -9.753906 8.546875 -9.859375 L 8.703125 -9.859375 L 8.8125 -6.8125 L 8.5625 -6.8125 C 8.09375 -7.71875 7.625 -8.429688 7.15625 -8.953125 C 6.695312 -9.472656 6.179688 -9.734375 5.609375 -9.734375 C 4.171875 -9.734375 3.453125 -8.332031 3.453125 -5.53125 L 3.453125 -4.40625 C 3.453125 -3 3.628906 -1.9375 3.984375 -1.21875 C 4.335938 -0.5 4.84375 -0.140625 5.5 -0.140625 Z M 3.34375 -12.9375 L 3.5625 -12.984375 C 3.695312 -12.609375 3.894531 -12.351562 4.15625 -12.21875 C 4.425781 -12.082031 4.832031 -12.015625 5.375 -12.015625 C 5.914062 -12.015625 6.316406 -12.078125 6.578125 -12.203125 C 6.835938 -12.328125 7.019531 -12.585938 7.125 -12.984375 L 7.34375 -12.9375 C 7.175781 -11.320312 6.507812 -10.515625 5.34375 -10.515625 C 4.632812 -10.515625 4.140625 -10.75 3.859375 -11.21875 C 3.597656 -11.644531 3.425781 -12.21875 3.34375 -12.9375 Z M 3.34375 -12.9375 "/></g></g></g><g fill="#000000" fill-opacity="1"><g transform="translate(60.485921, 37.389692)"><g><path d="M 0.359375 -9.859375 L 4.65625 -9.859375 L 4.65625 -9.59375 L 3.875 -9.59375 L 3.875 -0.265625 L 4.65625 -0.265625 L 4.65625 0 L 0.359375 0 L 0.359375 -0.265625 L 1.125 -0.265625 L 1.125 -9.59375 L 0.359375 -9.59375 Z M 2.46875 -10.609375 C 1.96875 -10.609375 1.609375 -10.734375 1.390625 -10.984375 C 1.179688 -11.242188 1.078125 -11.5625 1.078125 -11.9375 C 1.078125 -12.3125 1.191406 -12.617188 1.421875 -12.859375 C 1.660156 -13.109375 2.015625 -13.234375 2.484375 -13.234375 C 2.953125 -13.234375 3.304688 -13.125 3.546875 -12.90625 C 3.796875 -12.6875 3.921875 -12.367188 3.921875 -11.953125 C 3.921875 -11.546875 3.800781 -11.21875 3.5625 -10.96875 C 3.332031 -10.726562 2.96875 -10.609375 2.46875 -10.609375 Z M 2.46875 -10.609375 "/></g></g></g></svg>