<svg xmlns="http://www.w3.org/2000/svg" xmlns:xlink="http://www.w3.org/1999/xlink" width="70" zoomAndPan="magnify" viewBox="0 0 52.5 32.249999" height="43" preserveAspectRatio="xMidYMid meet" version="1.0"><defs><g/><clipPath id="59c1de5e7a"><path d="M 0.351562 0 L 51.660156 0 L 51.660156 31.515625 L 0.351562 31.515625 Z M 0.351562 0 " clip-rule="nonzero"/></clipPath><clipPath id="ed7f6f53c6"><path d="M 0.351562 12 L 1 12 L 1 13 L 0.351562 13 Z M 0.351562 12 " clip-rule="nonzero"/></clipPath></defs><g clip-path="url(#59c1de5e7a)"><path fill="#ffffff" d="M 0.351562 0 L 52.148438 0 L 52.148438 38.476562 L 0.351562 38.476562 Z M 0.351562 0 " fill-opacity="1" fill-rule="nonzero"/><path fill="#ffffff" d="M 0.351562 0 L 52.148438 0 L 52.148438 31.816406 L 0.351562 31.816406 Z M 0.351562 0 " fill-opacity="1" fill-rule="nonzero"/><path fill="#ffffff" d="M 0.351562 0 L 52.148438 0 L 52.148438 31.816406 L 0.351562 31.816406 Z M 0.351562 0 " fill-opacity="1" fill-rule="nonzero"/></g><g clip-path="url(#ed7f6f53c6)"><g fill="#000000" fill-opacity="1"><g transform="translate(0.364715, 12.577358)"><g/></g></g></g><g fill="#000000" fill-opacity="1"><g transform="translate(2.084609, 12.577358)"><g/></g></g><g fill="#000000" fill-opacity="1"><g transform="translate(3.804504, 12.577358)"><g/></g></g><g fill="#000000" fill-opacity="1"><g transform="translate(5.515395, 12.577358)"><g><path d="M 3.109375 -0.109375 C 3.421875 -0.109375 3.703125 -0.191406 3.953125 -0.359375 C 4.203125 -0.535156 4.328125 -0.796875 4.328125 -1.140625 C 4.328125 -1.484375 4.191406 -1.75 3.921875 -1.9375 C 3.660156 -2.125 3.285156 -2.285156 2.796875 -2.421875 C 2.304688 -2.554688 1.953125 -2.675781 1.734375 -2.78125 C 1.515625 -2.882812 1.304688 -3.019531 1.109375 -3.1875 C 0.710938 -3.519531 0.515625 -4.03125 0.515625 -4.71875 C 0.515625 -5.289062 0.71875 -5.78125 1.125 -6.1875 C 1.53125 -6.59375 2.082031 -6.796875 2.78125 -6.796875 C 3.125 -6.796875 3.476562 -6.742188 3.84375 -6.640625 C 4.207031 -6.546875 4.429688 -6.5 4.515625 -6.5 C 4.609375 -6.5 4.691406 -6.5625 4.765625 -6.6875 L 4.875 -6.6875 L 4.9375 -4.765625 L 4.78125 -4.765625 C 4.476562 -5.316406 4.15625 -5.757812 3.8125 -6.09375 C 3.476562 -6.425781 3.113281 -6.59375 2.71875 -6.59375 C 2.332031 -6.59375 2.03125 -6.5 1.8125 -6.3125 C 1.59375 -6.132812 1.484375 -5.894531 1.484375 -5.59375 C 1.484375 -5.289062 1.613281 -5.054688 1.875 -4.890625 C 2.132812 -4.734375 2.453125 -4.601562 2.828125 -4.5 C 3.203125 -4.394531 3.445312 -4.320312 3.5625 -4.28125 C 3.6875 -4.25 3.835938 -4.195312 4.015625 -4.125 C 4.191406 -4.0625 4.332031 -3.992188 4.4375 -3.921875 C 4.550781 -3.847656 4.671875 -3.753906 4.796875 -3.640625 C 4.921875 -3.535156 5.019531 -3.414062 5.09375 -3.28125 C 5.257812 -2.976562 5.34375 -2.613281 5.34375 -2.1875 C 5.34375 -1.5 5.125 -0.945312 4.6875 -0.53125 C 4.257812 -0.113281 3.695312 0.09375 3 0.09375 C 2.632812 0.09375 2.21875 0.046875 1.75 -0.046875 C 1.28125 -0.140625 1.019531 -0.1875 0.96875 -0.1875 C 0.882812 -0.1875 0.800781 -0.09375 0.71875 0.09375 L 0.578125 0.09375 L 0.484375 -2.1875 L 0.65625 -2.1875 C 0.9375 -1.625 1.289062 -1.132812 1.71875 -0.71875 C 2.15625 -0.3125 2.617188 -0.109375 3.109375 -0.109375 Z M 3.109375 -0.109375 "/></g></g></g><g fill="#000000" fill-opacity="1"><g transform="translate(11.248373, 12.577358)"><g><path d="M 0.234375 -6.6875 L 3.15625 -6.6875 L 3.15625 -6.515625 L 2.625 -6.515625 L 2.625 -0.1875 L 3.15625 -0.1875 L 3.15625 0 L 0.234375 0 L 0.234375 -0.1875 L 0.765625 -0.1875 L 0.765625 -6.515625 L 0.234375 -6.515625 Z M 1.671875 -7.203125 C 1.335938 -7.203125 1.097656 -7.285156 0.953125 -7.453125 C 0.804688 -7.628906 0.734375 -7.84375 0.734375 -8.09375 C 0.734375 -8.351562 0.8125 -8.566406 0.96875 -8.734375 C 1.125 -8.898438 1.359375 -8.984375 1.671875 -8.984375 C 1.992188 -8.984375 2.238281 -8.90625 2.40625 -8.75 C 2.570312 -8.601562 2.65625 -8.390625 2.65625 -8.109375 C 2.65625 -7.835938 2.578125 -7.617188 2.421875 -7.453125 C 2.265625 -7.285156 2.015625 -7.203125 1.671875 -7.203125 Z M 1.671875 -7.203125 "/></g></g></g><g fill="#000000" fill-opacity="1"><g transform="translate(14.640377, 12.577358)"><g><path d="M 3.734375 -0.09375 C 4.046875 -0.09375 4.242188 -0.148438 4.328125 -0.265625 C 4.410156 -0.378906 4.453125 -0.570312 4.453125 -0.84375 L 4.453125 -2.703125 L 3.84375 -2.703125 L 3.84375 -2.921875 L 6.59375 -2.921875 L 6.59375 -2.703125 L 6.21875 -2.703125 L 6.21875 -0.015625 L 6.078125 -0.015625 C 5.960938 -0.171875 5.800781 -0.25 5.59375 -0.25 C 5.5 -0.25 5.226562 -0.191406 4.78125 -0.078125 C 4.34375 0.0351562 3.96875 0.09375 3.65625 0.09375 C 2.625 0.09375 1.820312 -0.1875 1.25 -0.75 C 0.675781 -1.3125 0.390625 -2.15625 0.390625 -3.28125 C 0.390625 -4.40625 0.6875 -5.269531 1.28125 -5.875 C 1.882812 -6.488281 2.6875 -6.796875 3.6875 -6.796875 C 4.082031 -6.796875 4.472656 -6.742188 4.859375 -6.640625 C 5.253906 -6.546875 5.484375 -6.5 5.546875 -6.5 C 5.609375 -6.5 5.65625 -6.515625 5.6875 -6.546875 C 5.71875 -6.578125 5.753906 -6.625 5.796875 -6.6875 L 5.90625 -6.6875 L 5.96875 -4.625 L 5.796875 -4.625 C 5.484375 -5.238281 5.171875 -5.722656 4.859375 -6.078125 C 4.546875 -6.429688 4.195312 -6.609375 3.8125 -6.609375 C 2.832031 -6.609375 2.34375 -5.65625 2.34375 -3.75 L 2.34375 -3 C 2.34375 -2.039062 2.460938 -1.316406 2.703125 -0.828125 C 2.941406 -0.335938 3.285156 -0.09375 3.734375 -0.09375 Z M 3.734375 -0.09375 "/></g></g></g><g fill="#000000" fill-opacity="1"><g transform="translate(21.548604, 12.577358)"><g><path d="M 4.796875 -2.953125 L 4.796875 -3.65625 C 4.796875 -4.820312 4.738281 -5.5625 4.625 -5.875 C 4.488281 -6.21875 4.304688 -6.429688 4.078125 -6.515625 C 3.941406 -6.566406 3.773438 -6.59375 3.578125 -6.59375 C 3.390625 -6.59375 3.226562 -6.566406 3.09375 -6.515625 C 2.957031 -6.460938 2.84375 -6.375 2.75 -6.25 C 2.664062 -6.125 2.59375 -5.988281 2.53125 -5.84375 C 2.476562 -5.707031 2.4375 -5.515625 2.40625 -5.265625 C 2.375 -4.890625 2.359375 -4.34375 2.359375 -3.625 L 2.359375 -2.9375 C 2.359375 -2.15625 2.382812 -1.597656 2.4375 -1.265625 C 2.5 -0.941406 2.578125 -0.710938 2.671875 -0.578125 C 2.867188 -0.265625 3.171875 -0.109375 3.578125 -0.109375 C 4.085938 -0.109375 4.414062 -0.316406 4.5625 -0.734375 C 4.71875 -1.160156 4.796875 -1.898438 4.796875 -2.953125 Z M 3.5625 0.09375 C 2.5 0.09375 1.703125 -0.191406 1.171875 -0.765625 C 0.648438 -1.347656 0.390625 -2.1875 0.390625 -3.28125 C 0.390625 -4.375 0.671875 -5.234375 1.234375 -5.859375 C 1.796875 -6.484375 2.59375 -6.796875 3.625 -6.796875 C 4.664062 -6.796875 5.445312 -6.5 5.96875 -5.90625 C 6.5 -5.3125 6.765625 -4.460938 6.765625 -3.359375 C 6.765625 -2.265625 6.492188 -1.414062 5.953125 -0.8125 C 5.421875 -0.207031 4.625 0.09375 3.5625 0.09375 Z M 3.5625 0.09375 "/></g></g></g><g fill="#000000" fill-opacity="1"><g transform="translate(28.695706, 12.577358)"><g><path d="M 3.140625 -3.390625 L 2.625 -3.390625 L 2.625 -0.1875 L 3.25 -0.1875 L 3.25 0 L 0.140625 0 L 0.140625 -0.1875 L 0.765625 -0.1875 L 0.765625 -6.515625 L 0.140625 -6.515625 L 0.140625 -6.6875 L 3.03125 -6.6875 C 3.863281 -6.6875 4.453125 -6.644531 4.796875 -6.5625 C 5.140625 -6.476562 5.382812 -6.375 5.53125 -6.25 C 5.832031 -6 5.984375 -5.601562 5.984375 -5.0625 C 5.984375 -4.519531 5.847656 -4.132812 5.578125 -3.90625 C 5.316406 -3.675781 4.910156 -3.535156 4.359375 -3.484375 L 4.359375 -3.46875 C 4.878906 -3.394531 5.238281 -3.238281 5.4375 -3 C 5.644531 -2.769531 5.75 -2.375 5.75 -1.8125 L 5.75 -1.3125 C 5.75 -0.976562 5.765625 -0.753906 5.796875 -0.640625 C 5.835938 -0.523438 5.914062 -0.46875 6.03125 -0.46875 C 6.144531 -0.46875 6.234375 -0.519531 6.296875 -0.625 C 6.359375 -0.726562 6.421875 -0.953125 6.484375 -1.296875 L 6.640625 -1.265625 C 6.578125 -0.722656 6.457031 -0.359375 6.28125 -0.171875 C 6.101562 0.00390625 5.753906 0.09375 5.234375 0.09375 C 4.710938 0.09375 4.335938 -0.0234375 4.109375 -0.265625 C 3.890625 -0.515625 3.78125 -0.976562 3.78125 -1.65625 L 3.78125 -2.359375 C 3.78125 -2.710938 3.734375 -2.972656 3.640625 -3.140625 C 3.554688 -3.304688 3.390625 -3.390625 3.140625 -3.390625 Z M 2.625 -6.515625 L 2.625 -3.5625 L 2.9375 -3.5625 C 3.300781 -3.5625 3.566406 -3.671875 3.734375 -3.890625 C 3.910156 -4.117188 4 -4.484375 4 -4.984375 L 4 -5.265625 C 4 -5.773438 3.914062 -6.109375 3.75 -6.265625 C 3.582031 -6.429688 3.3125 -6.515625 2.9375 -6.515625 Z M 2.625 -6.515625 "/></g></g></g><g fill="#000000" fill-opacity="1"><g transform="translate(35.537049, 12.577358)"><g><path d="M 6.078125 -6.6875 L 6.171875 -4.296875 L 6 -4.296875 C 5.71875 -5.140625 5.46875 -5.71875 5.25 -6.03125 C 5.03125 -6.34375 4.71875 -6.5 4.3125 -6.5 L 4.203125 -6.5 L 4.203125 -0.203125 L 5.015625 -0.203125 L 5.015625 0 L 1.515625 0 L 1.515625 -0.203125 L 2.328125 -0.203125 L 2.328125 -6.5 L 2.203125 -6.5 C 1.796875 -6.5 1.476562 -6.335938 1.25 -6.015625 C 1.03125 -5.691406 0.789062 -5.117188 0.53125 -4.296875 L 0.34375 -4.296875 L 0.4375 -6.6875 Z M 6.078125 -6.6875 "/></g></g></g><g fill="#000000" fill-opacity="1"><g transform="translate(42.063084, 12.577358)"><g><path d="M 4.125 -0.1875 L 3.4375 -2.25 L 1.546875 -2.25 L 0.796875 -0.1875 L 1.515625 -0.1875 L 1.515625 0 L 0.0625 0 L 0.0625 -0.1875 L 0.5 -0.1875 L 2.9375 -6.75 L 3.734375 -6.75 L 6.140625 -0.1875 L 6.578125 -0.1875 L 6.578125 0 L 3.453125 0 L 3.453125 -0.1875 Z M 2.53125 -4.96875 L 1.625 -2.453125 L 3.359375 -2.453125 Z M 2.53125 -4.96875 "/></g></g></g><g fill="#000000" fill-opacity="1"><g transform="translate(48.686559, 12.577358)"><g/></g></g><g fill="#000000" fill-opacity="1"><g transform="translate(50.406453, 12.577358)"><g/></g></g><g fill="#000000" fill-opacity="1"><g transform="translate(8.289796, 25.317206)"><g><path d="M 0.203125 -6.6875 L 3.0625 -6.6875 C 3.945312 -6.6875 4.609375 -6.566406 5.046875 -6.328125 C 5.492188 -6.085938 5.71875 -5.6875 5.71875 -5.125 C 5.71875 -4.25 5.191406 -3.726562 4.140625 -3.5625 L 4.140625 -3.53125 C 5.410156 -3.375 6.046875 -2.820312 6.046875 -1.875 C 6.046875 -1.175781 5.785156 -0.6875 5.265625 -0.40625 C 4.742188 -0.132812 3.992188 0 3.015625 0 L 0.203125 0 L 0.203125 -0.1875 L 0.828125 -0.1875 L 0.828125 -6.515625 L 0.203125 -6.515625 Z M 2.6875 -3.390625 L 2.6875 -0.1875 L 3.140625 -0.1875 C 3.484375 -0.1875 3.722656 -0.304688 3.859375 -0.546875 C 4.003906 -0.785156 4.078125 -1.140625 4.078125 -1.609375 L 4.078125 -2.125 C 4.078125 -2.539062 3.988281 -2.851562 3.8125 -3.0625 C 3.644531 -3.28125 3.34375 -3.390625 2.90625 -3.390625 Z M 2.6875 -6.515625 L 2.6875 -3.5625 L 2.9375 -3.5625 C 3.269531 -3.5625 3.5 -3.660156 3.625 -3.859375 C 3.757812 -4.066406 3.828125 -4.378906 3.828125 -4.796875 L 3.828125 -5.234375 C 3.828125 -5.710938 3.769531 -6.046875 3.65625 -6.234375 C 3.539062 -6.421875 3.320312 -6.515625 3 -6.515625 Z M 2.6875 -6.515625 "/></g></g></g><g fill="#000000" fill-opacity="1"><g transform="translate(14.586506, 25.317206)"><g><path d="M 0.234375 -6.6875 L 3.15625 -6.6875 L 3.15625 -6.515625 L 2.625 -6.515625 L 2.625 -0.1875 L 3.15625 -0.1875 L 3.15625 0 L 0.234375 0 L 0.234375 -0.1875 L 0.765625 -0.1875 L 0.765625 -6.515625 L 0.234375 -6.515625 Z M 1.671875 -7.203125 C 1.335938 -7.203125 1.097656 -7.285156 0.953125 -7.453125 C 0.804688 -7.628906 0.734375 -7.84375 0.734375 -8.09375 C 0.734375 -8.351562 0.8125 -8.566406 0.96875 -8.734375 C 1.125 -8.898438 1.359375 -8.984375 1.671875 -8.984375 C 1.992188 -8.984375 2.238281 -8.90625 2.40625 -8.75 C 2.570312 -8.601562 2.65625 -8.390625 2.65625 -8.109375 C 2.65625 -7.835938 2.578125 -7.617188 2.421875 -7.453125 C 2.265625 -7.285156 2.015625 -7.203125 1.671875 -7.203125 Z M 1.671875 -7.203125 "/></g></g></g><g fill="#000000" fill-opacity="1"><g transform="translate(17.97851, 25.317206)"><g><path d="M 3.140625 -3.390625 L 2.625 -3.390625 L 2.625 -0.1875 L 3.25 -0.1875 L 3.25 0 L 0.140625 0 L 0.140625 -0.1875 L 0.765625 -0.1875 L 0.765625 -6.515625 L 0.140625 -6.515625 L 0.140625 -6.6875 L 3.03125 -6.6875 C 3.863281 -6.6875 4.453125 -6.644531 4.796875 -6.5625 C 5.140625 -6.476562 5.382812 -6.375 5.53125 -6.25 C 5.832031 -6 5.984375 -5.601562 5.984375 -5.0625 C 5.984375 -4.519531 5.847656 -4.132812 5.578125 -3.90625 C 5.316406 -3.675781 4.910156 -3.535156 4.359375 -3.484375 L 4.359375 -3.46875 C 4.878906 -3.394531 5.238281 -3.238281 5.4375 -3 C 5.644531 -2.769531 5.75 -2.375 5.75 -1.8125 L 5.75 -1.3125 C 5.75 -0.976562 5.765625 -0.753906 5.796875 -0.640625 C 5.835938 -0.523438 5.914062 -0.46875 6.03125 -0.46875 C 6.144531 -0.46875 6.234375 -0.519531 6.296875 -0.625 C 6.359375 -0.726562 6.421875 -0.953125 6.484375 -1.296875 L 6.640625 -1.265625 C 6.578125 -0.722656 6.457031 -0.359375 6.28125 -0.171875 C 6.101562 0.00390625 5.753906 0.09375 5.234375 0.09375 C 4.710938 0.09375 4.335938 -0.0234375 4.109375 -0.265625 C 3.890625 -0.515625 3.78125 -0.976562 3.78125 -1.65625 L 3.78125 -2.359375 C 3.78125 -2.710938 3.734375 -2.972656 3.640625 -3.140625 C 3.554688 -3.304688 3.390625 -3.390625 3.140625 -3.390625 Z M 2.625 -6.515625 L 2.625 -3.5625 L 2.9375 -3.5625 C 3.300781 -3.5625 3.566406 -3.671875 3.734375 -3.890625 C 3.910156 -4.117188 4 -4.484375 4 -4.984375 L 4 -5.265625 C 4 -5.773438 3.914062 -6.109375 3.75 -6.265625 C 3.582031 -6.429688 3.3125 -6.515625 2.9375 -6.515625 Z M 2.625 -6.515625 "/></g></g></g><g fill="#000000" fill-opacity="1"><g transform="translate(24.819853, 25.317206)"><g><path d="M 0.203125 -6.6875 L 3.640625 -6.6875 L 3.640625 -6.484375 L 2.625 -6.484375 L 2.625 -0.203125 L 2.96875 -0.203125 C 3.507812 -0.203125 3.941406 -0.367188 4.265625 -0.703125 C 4.585938 -1.035156 4.914062 -1.546875 5.25 -2.234375 L 5.453125 -2.234375 L 5.265625 0 L 0.203125 0 L 0.203125 -0.203125 L 0.765625 -0.203125 L 0.765625 -6.484375 L 0.203125 -6.484375 Z M 0.203125 -6.6875 "/></g></g></g><g fill="#000000" fill-opacity="1"><g transform="translate(30.514608, 25.317206)"><g><path d="M 0.234375 -6.6875 L 3.15625 -6.6875 L 3.15625 -6.515625 L 2.625 -6.515625 L 2.625 -0.1875 L 3.15625 -0.1875 L 3.15625 0 L 0.234375 0 L 0.234375 -0.1875 L 0.765625 -0.1875 L 0.765625 -6.515625 L 0.234375 -6.515625 Z M 1.671875 -7.203125 C 1.335938 -7.203125 1.097656 -7.285156 0.953125 -7.453125 C 0.804688 -7.628906 0.734375 -7.84375 0.734375 -8.09375 C 0.734375 -8.351562 0.8125 -8.566406 0.96875 -8.734375 C 1.125 -8.898438 1.359375 -8.984375 1.671875 -8.984375 C 1.992188 -8.984375 2.238281 -8.90625 2.40625 -8.75 C 2.570312 -8.601562 2.65625 -8.390625 2.65625 -8.109375 C 2.65625 -7.835938 2.578125 -7.617188 2.421875 -7.453125 C 2.265625 -7.285156 2.015625 -7.203125 1.671875 -7.203125 Z M 1.671875 -7.203125 "/></g></g></g><g fill="#000000" fill-opacity="1"><g transform="translate(33.906612, 25.317206)"><g><path d="M 3.734375 -0.09375 C 4.046875 -0.09375 4.242188 -0.148438 4.328125 -0.265625 C 4.410156 -0.378906 4.453125 -0.570312 4.453125 -0.84375 L 4.453125 -2.703125 L 3.84375 -2.703125 L 3.84375 -2.921875 L 6.59375 -2.921875 L 6.59375 -2.703125 L 6.21875 -2.703125 L 6.21875 -0.015625 L 6.078125 -0.015625 C 5.960938 -0.171875 5.800781 -0.25 5.59375 -0.25 C 5.5 -0.25 5.226562 -0.191406 4.78125 -0.078125 C 4.34375 0.0351562 3.96875 0.09375 3.65625 0.09375 C 2.625 0.09375 1.820312 -0.1875 1.25 -0.75 C 0.675781 -1.3125 0.390625 -2.15625 0.390625 -3.28125 C 0.390625 -4.40625 0.6875 -5.269531 1.28125 -5.875 C 1.882812 -6.488281 2.6875 -6.796875 3.6875 -6.796875 C 4.082031 -6.796875 4.472656 -6.742188 4.859375 -6.640625 C 5.253906 -6.546875 5.484375 -6.5 5.546875 -6.5 C 5.609375 -6.5 5.65625 -6.515625 5.6875 -6.546875 C 5.71875 -6.578125 5.753906 -6.625 5.796875 -6.6875 L 5.90625 -6.6875 L 5.96875 -4.625 L 5.796875 -4.625 C 5.484375 -5.238281 5.171875 -5.722656 4.859375 -6.078125 C 4.546875 -6.429688 4.195312 -6.609375 3.8125 -6.609375 C 2.832031 -6.609375 2.34375 -5.65625 2.34375 -3.75 L 2.34375 -3 C 2.34375 -2.039062 2.460938 -1.316406 2.703125 -0.828125 C 2.941406 -0.335938 3.285156 -0.09375 3.734375 -0.09375 Z M 2.265625 -8.78125 L 2.421875 -8.8125 C 2.503906 -8.550781 2.632812 -8.375 2.8125 -8.28125 C 3 -8.195312 3.273438 -8.15625 3.640625 -8.15625 C 4.015625 -8.15625 4.285156 -8.195312 4.453125 -8.28125 C 4.628906 -8.363281 4.757812 -8.539062 4.84375 -8.8125 L 4.984375 -8.78125 C 4.867188 -7.6875 4.414062 -7.140625 3.625 -7.140625 C 3.144531 -7.140625 2.8125 -7.296875 2.625 -7.609375 C 2.445312 -7.898438 2.328125 -8.289062 2.265625 -8.78125 Z M 2.265625 -8.78125 "/></g></g></g><g fill="#000000" fill-opacity="1"><g transform="translate(40.814839, 25.317206)"><g><path d="M 0.234375 -6.6875 L 3.15625 -6.6875 L 3.15625 -6.515625 L 2.625 -6.515625 L 2.625 -0.1875 L 3.15625 -0.1875 L 3.15625 0 L 0.234375 0 L 0.234375 -0.1875 L 0.765625 -0.1875 L 0.765625 -6.515625 L 0.234375 -6.515625 Z M 1.671875 -7.203125 C 1.335938 -7.203125 1.097656 -7.285156 0.953125 -7.453125 C 0.804688 -7.628906 0.734375 -7.84375 0.734375 -8.09375 C 0.734375 -8.351562 0.8125 -8.566406 0.96875 -8.734375 C 1.125 -8.898438 1.359375 -8.984375 1.671875 -8.984375 C 1.992188 -8.984375 2.238281 -8.90625 2.40625 -8.75 C 2.570312 -8.601562 2.65625 -8.390625 2.65625 -8.109375 C 2.65625 -7.835938 2.578125 -7.617188 2.421875 -7.453125 C 2.265625 -7.285156 2.015625 -7.203125 1.671875 -7.203125 Z M 1.671875 -7.203125 "/></g></g></g></svg>